#!OML:ASF I:\salsa\salsa 7_09\Patient 1\Session 1\dancermale.ASF
:FULLY-SPECIFIED
:DEGREES
1516
root 8.62173 16.7769 -11.888 -538.026 172.711 188.608
lowerback 10.3812 -1.83715 -5.26134
upperback 1.66833 -3.00886 0.147734
thorax -3.79341 -1.42161 3.51222
lowerneck -6.18822 -10.5969 -9.1038
upperneck 19.8405 -14.3566 4.79726
head 8.17823 -7.08415 1.67589
rclavicle 2.16675e-014 -1.59028e-015
rhumerus -51.7706 -13.3766 -85.2407
rradius 82.7058
rwrist -9.12347
rhand -41.559 -36.2411
rfingers 7.12502
rthumb -14.4703 -65.7166
lclavicle 2.16675e-014 -1.59028e-015
lhumerus -35.2146 -19.7099 87.7651
lradius 69.2292
lwrist -4.58519
lhand -15.1289 17.4601
lfingers 7.12502
lthumb 11.0405 47.1497
rfemur -35.2307 3.94975 20.5187
rtibia 80.5064
rfoot -10.021 -19.1317
rtoes 36.1749
lfemur -5.11199 4.57927 -21.6305
ltibia 25.3064
lfoot -20.2614 8.91972
ltoes -33.3439
1517
root 8.63968 16.7826 -11.8828 -537.852 173.736 187.995
lowerback 9.91875 -1.65883 -4.47077
upperback 1.53882 -2.66362 0.218587
thorax -3.73883 -1.26035 3.08302
lowerneck -6.00095 -10.7605 -9.02131
upperneck 19.7006 -14.6118 4.83108
head 8.11313 -7.20235 1.65818
rclavicle -1.82882e-014 -7.95139e-015
rhumerus -51.6224 -10.022 -89.8269
rradius 82.2999
rwrist -8.22935
rhand -39.6289 -32.0766
rfingers 7.12502
rthumb -12.6101 -61.676
lclavicle -1.82882e-014 -7.95139e-015
lhumerus -35.615 -20.5515 87.6772
lradius 69.8965
lwrist -4.30349
lhand -15.1283 17.8328
lfingers 7.12502
lthumb 11.041 47.5224
rfemur -33.9343 2.56917 21.2381
rtibia 80.4788
rfoot -9.3561 -18.7793
rtoes 38.5847
lfemur -5.32032 5.35715 -20.8565
ltibia 25.4235
lfoot -20.2718 8.90468
ltoes -33.0743
1518
root 8.63956 16.7926 -11.8655 -537.807 174.95 187.317
lowerback 9.44878 -1.3733 -3.7579
upperback 1.49744 -2.18911 0.277899
thorax -3.5854 -1.0376 2.6705
lowerneck -5.88713 -10.9379 -8.76539
upperneck 19.6428 -14.9003 4.83222
head 8.07406 -7.32496 1.59562
rclavicle 3.83654e-014 -1.51076e-014
rhumerus -51.1771 -6.32494 -94.3261
rradius 81.7525
rwrist -8.08257
rhand -36.9482 -27.2103
rfingers 7.12502
rthumb -10.0247 -56.9516
lclavicle 3.83654e-014 -1.51076e-014
lhumerus -36.0911 -21.6058 87.6137
lradius 70.611
lwrist -3.45742
lhand -15.1841 18.1688
lfingers 7.12502
lthumb 10.9872 47.8613
rfemur -32.1556 0.963738 21.9991
rtibia 79.4321
rfoot -8.5984 -18.3537
rtoes 39.0666
lfemur -5.29268 6.04732 -19.9494
ltibia 25.5262
lfoot -20.2559 9.23135
ltoes -32.9775
1519
root 8.62063 16.8016 -11.8457 -537.674 176.284 186.444
lowerback 8.86692 -1.05159 -3.12433
upperback 1.44594 -1.67275 0.471946
thorax -3.36506 -0.792552 2.43934
lowerneck -5.96325 -11.115 -8.41974
upperneck 19.8276 -15.1455 4.56811
head 8.11742 -7.43639 1.42438
rclavicle 9.0447e-015 -2.62396e-014
rhumerus -50.478 -2.36983 -98.4861
rradius 81.0839
rwrist -8.23794
rhand -32.7993 -21.4944
rfingers 7.12502
rthumb -6.02044 -51.3889
lclavicle 9.0447e-015 -2.62396e-014
lhumerus -36.6608 -22.6584 87.6773
lradius 71.2231
lwrist -2.38957
lhand -15.6975 18.3631
lfingers 7.12502
lthumb 10.492 48.0812
rfemur -29.9077 -0.491621 22.9769
rtibia 77.1149
rfoot -7.3914 -17.9598
rtoes 36.9543
lfemur -5.4032 6.63028 -18.7831
ltibia 25.7895
lfoot -20.2681 9.69395
ltoes -32.4161
1520
root 8.58272 16.8021 -11.8172 -537.766 177.683 185.793
lowerback 8.44694 -0.745187 -3.1026
upperback 1.45563 -1.24062 0.752446
thorax -3.14299 -0.58194 2.66053
lowerneck -6.03448 -11.2348 -8.20927
upperneck 20.0697 -15.2901 4.26538
head 8.17924 -7.51271 1.27089
rclavicle 1.03368e-014 3.97569e-015
rhumerus -49.4777 1.54998 -101.591
rradius 80.0565
rwrist -6.95032
rhand -27.0267 -16.5778
rfingers 7.12502
rthumb -0.445897 -46.557
lclavicle 1.03368e-014 3.97569e-015
lhumerus -37.3578 -23.2294 87.8352
lradius 71.6728
lwrist -1.60551
lhand -16.1199 18.4385
lfingers 7.12502
lthumb 10.0844 48.1768
rfemur -26.7653 -2.12402 23.6465
rtibia 73.4398
rfoot -6.09417 -17.2033
rtoes 34.808
lfemur -5.11822 7.01311 -17.8382
ltibia 25.945
lfoot -20.2079 10.3712
ltoes -31.6537
1521
root 8.52636 16.8007 -11.7843 -537.644 179.151 184.962
lowerback 7.83895 -0.441644 -3.15211
upperback 1.33669 -0.811099 1.1583
thorax -2.95014 -0.369018 3.05541
lowerneck -5.86829 -11.2813 -8.26907
upperneck 20.2362 -15.3657 4.22148
head 8.21251 -7.55982 1.26257
rclavicle -7.55382e-015 2.78299e-014
rhumerus -48.3665 4.76087 -103.679
rradius 79.1241
rwrist -4.01673
rhand -19.2991 -11.591
rfingers 7.12502
rthumb 7.01645 -41.4547
lclavicle -7.55382e-015 2.78299e-014
lhumerus -38.3407 -23.6003 88.1508
lradius 72.1722
lwrist -0.818663
lhand -16.3332 18.9373
lfingers 7.12502
lthumb 9.87867 48.6855
rfemur -23.7453 -3.57877 24.5623
rtibia 69.0192
rfoot -5.48713 -16.2157
rtoes 34.4673
lfemur -5.06364 7.32314 -16.6838
ltibia 26.1574
lfoot -19.7836 11.6135
ltoes -33.1366
1522
root 8.45034 16.7915 -11.7462 -537.507 180.509 184.293
lowerback 7.16706 -0.163725 -3.44771
upperback 1.22035 -0.436367 1.46175
thorax -2.71946 -0.181955 3.49364
lowerneck -5.78585 -11.2949 -8.25169
upperneck 20.5445 -15.412 4.1897
head 8.30087 -7.58347 1.24174
rclavicle 1.09332e-014 -1.43125e-014
rhumerus -46.9903 7.14689 -105.336
rradius 78.2146
rwrist -2.32623
rhand -13.3466 -7.96459
rfingers 7.12502
rthumb 12.7591 -37.5547
lclavicle 1.09332e-014 -1.43125e-014
lhumerus -39.4723 -24.0788 88.4328
lradius 72.6577
lwrist 0.0319822
lhand -16.3454 19.0176
lfingers 7.12502
lthumb 9.86691 48.7664
rfemur -20.5571 -5.00788 25.2551
rtibia 64.1329
rfoot -8.12814 -16.2391
rtoes 29.637
lfemur -5.29489 6.98135 -15.845
ltibia 26.9415
lfoot -19.0155 13.2981
ltoes -35.1992
1523
root 8.35722 16.7759 -11.7074 -537.444 181.677 183.727
lowerback 6.5837 0.0540306 -3.84517
upperback 1.12571 -0.15195 1.64227
thorax -2.51432 -0.0393132 3.87641
lowerneck -5.9262 -11.3287 -7.809
upperneck 20.9506 -15.4711 3.86726
head 8.40224 -7.60221 1.05009
rclavicle -9.83984e-015 -1.90833e-014
rhumerus -45.4745 8.68546 -106.675
rradius 77.5173
rwrist -1.77054
rhand -8.8557 -5.88676
rfingers 7.12502
rthumb 17.0853 -35.1555
lclavicle -9.83984e-015 -1.90833e-014
lhumerus -40.6574 -24.6042 88.5885
lradius 73.1555
lwrist 0.762668
lhand -15.9593 18.8303
lfingers 7.12502
lthumb 10.2394 48.5611
rfemur -17.1575 -6.38939 25.8027
rtibia 58.8865
rfoot -9.7479 -16.0792
rtoes 24.025
lfemur -5.56903 6.41359 -15.0674
ltibia 27.9822
lfoot -18.2237 14.3661
ltoes -35.6159
1524
root 8.25816 16.7612 -11.6735 -537.507 182.764 182.984
lowerback 6.28725 0.256051 -4.1573
upperback 1.02289 0.114162 1.95903
thorax -2.4816 0.0982023 4.36023
lowerneck -6.04191 -11.3747 -7.45886
upperneck 21.184 -15.5122 3.48499
head 8.4424 -7.62711 0.860421
rclavicle -1.799e-014 -2.46493e-014
rhumerus -43.998 9.60123 -107.361
rradius 76.7329
rwrist -0.522272
rhand -3.23283 -3.47881
rfingers 7.12502
rthumb 22.4905 -32.1891
lclavicle -1.799e-014 -2.46493e-014
lhumerus -41.9367 -24.8841 88.9727
lradius 73.6721
lwrist 1.56766
lhand -15.9798 18.7603
lfingers 7.12502
lthumb 10.2196 48.4921
rfemur -13.4353 -7.45353 26.4466
rtibia 53.4841
rfoot -11.6412 -15.6369
rtoes 20.1506
lfemur -6.46948 5.91211 -14.0302
ltibia 30.5075
lfoot -17.3885 14.9932
ltoes -34.3057
